<?xml version="1.0" encoding="UTF-8"?>
<svg width="16px" height="16px" viewBox="0 0 16 16" version="1.1" xmlns="http://www.w3.org/2000/svg" xmlns:xlink="http://www.w3.org/1999/xlink">
    <!-- Generator: Sketch 48.2 (47327) - http://www.bohemiancoding.com/sketch -->
    <title>Icon</title>
    <desc>Created with Sketch.</desc>
    <defs>
        <path d="M10.4362815,17.4728333 C9.96714821,17.4728333 9.39984821,17.8779 8.85528155,18.3139667 C8.32414821,18.7407333 8.04824821,19.1313333 8.03378155,19.4775 C8.01311488,19.9766 8.55044821,20.4860333 9.02474821,20.9355333 L9.31924821,21.2207333 C9.52281488,21.4253333 9.89171488,21.4666667 10.1655482,21.4666667 C11.6442482,21.4666667 14.4321815,20.4054333 17.4185149,17.4170333 C21.3451815,13.4914 21.8732149,9.9698 21.2356482,9.3312 L20.9421815,9.02843333 C20.4420482,8.50246667 19.9532815,8.03333333 19.4572815,8.03333333 C19.1338482,8.04676667 18.7432482,8.32266667 18.3154482,8.85276667 C17.0992149,10.3676333 17.3213815,10.7148333 18.2069482,11.5869667 L18.3691815,11.7481667 C18.8641482,12.2431333 18.7897482,12.9923 18.1490815,13.9770667 C17.7440149,14.6001667 17.1147149,15.3359 16.2260482,16.2245667 C15.0800815,17.3736333 13.6241149,18.6932 12.5298149,18.6932 C12.2229149,18.6932 11.9687149,18.5888333 11.7537815,18.3739 L11.5853482,18.2034 C11.1255149,17.7363333 10.8454815,17.4728333 10.4362815,17.4728333 M10.1655482,22.5 C9.48251488,22.5 8.95344821,22.3171 8.59488155,21.9575 L8.30968155,21.6816 C7.71138155,21.1143 6.96221488,20.4023333 7.00148155,19.4351333 C7.02938155,18.7686333 7.42308155,18.1383 8.20841488,17.509 C9.00718155,16.8673 9.69124821,16.4395 10.4362815,16.4395 C11.2980815,16.4395 11.8178482,16.9665 12.3200482,17.4769667 L12.4864149,17.6443667 C12.8625482,17.6743333 13.6179149,17.3767333 15.4944482,15.4950333 C16.3324815,14.657 16.9173482,13.9760333 17.2821149,13.4139 C17.7016482,12.7711667 17.6696149,12.5107667 17.6406815,12.4797667 L17.4805149,12.3216667 C16.0782815,10.9411333 16.0855149,9.9791 17.5104815,8.2059 C18.1418482,7.4216 18.7711482,7.0279 19.4345482,7 L19.4355815,7 C20.3624815,7 21.0289815,7.62103333 21.6882482,8.31336667 L21.9724149,8.60683333 C23.3209149,9.9574 22.0860815,14.2106 18.1490815,18.1476 C14.9385149,21.3602333 11.8416149,22.5 10.1655482,22.5" id="path-1"></path>
    </defs>
    <g id="Blocks/CTA/Desktop/Light" stroke="none" stroke-width="1" fill="none" fill-rule="evenodd" transform="translate(-22.000000, -13.000000)">
        <g id="CTA">
            <g id="6:20:5:15" transform="translate(15.000000, 6.000000)">
                <g id="Icon">
                    <g id="Bits/Icons/Small/SmIcon-Phone">
                        <g id="Icon-Phone">
                            <rect id="Rectangle-10" x="0" y="0" width="30" height="30"></rect>
                            <mask id="mask-2" fill="white">
                                <use xlink:href="#path-1"></use>
                            </mask>
                            <use id="Fill-1" fill="#77BC1F" xlink:href="#path-1"></use>
                            <g id="Bits/Icons/Color/White" mask="url(#mask-2)" fill="#FFFFFF" opacity="0.979999959">
                                <rect id="Color-White" x="0" y="0" width="30" height="30"></rect>
                            </g>
                        </g>
                    </g>
                </g>
            </g>
        </g>
    </g>
</svg>